# xmcd
#
# Track frame offsets:
#	150
#	1465
#	30712
#	45027
#	97221
#	124923
#	157566
#	205536
#	244595
#	268780
#	288054
#	318043
#	331427
#
# Disc length: 4652 seconds
#
# Revision: 1
# Processed by: cddbd v1.5.2PL0 Copyright (c) Steve Scherf et al.
# Submitted via: audiograbber 1.83.01
#
DISCID=9d122a0d
DTITLE=Fania Remixed - I Like It Like That
DYEAR=2008
DGENRE=Salsa
TTITLE0=Intro
TTITLE1=I Like It Like That - {Pete Rodriguez}
TTITLE2=Happy Soul With A Hook - {Dave Cortez}
TTITLE3=Mi Gente - {Hector Lavoe}
TTITLE4=Plastico - {Willie Colon and Ruben Blades}
TTITLE5=Saona - {Noro Morales}
TTITLE6=Alejate - {Hector Lavoe}
TTITLE7=O Elefante - {Ray Barretto}
TTITLE8=Take Five - {Roberto Roena}
TTITLE9=Boogaloo De Johnny - {Johnny Pacheco}
TTITLE10=I Didn't Want To Have To Do It - {Ralfi Pagan} 
TTITLE11=Morris Park - {Lenni Sesar}
TTITLE12=Fever - {La Lupe}
EXTD=YEAR: 2008
EXTT0=
EXTT1=
EXTT2=
EXTT3=
EXTT4=
EXTT5=
EXTT6=
EXTT7=
EXTT8=
EXTT9=
EXTT10=
EXTT11=
EXTT12=
PLAYORDER=
